Coordinates
version=1
nRows=60
nColumns=12
inDegrees=yes

Units are S.I. units (second, meters, Newtons, ...)
Angles are in degrees

endheader
time	SC_y	SC_z	SC_x	AC_y	AC_z	AC_x	GH_y	GH_z	GH_yy	EL_x	PS_y
       0.0              -27.44          5.315          37.31          58.73         -16.79        -0.2817         -135.6          68.84          50.55          119.7          55.06
   0.04091              -27.44          5.318          37.31          58.73         -16.79        -0.2801         -135.6          68.84          50.52          119.6          55.08
   0.08183              -27.44          5.321          37.32          58.73         -16.78        -0.2785         -135.6          68.84           50.5          119.6          55.09
    0.1227              -27.43          5.324          37.32          58.73         -16.78        -0.2768         -135.5          68.84          50.47          119.6          55.11
    0.1637              -27.43          5.328          37.33          58.73         -16.78        -0.2749         -135.5          68.84          50.45          119.6          55.12
    0.2046              -27.43          5.331          37.33          58.73         -16.78        -0.2729         -135.5          68.84          50.42          119.6          55.14
    0.2455              -27.43          5.336          37.34          58.73         -16.78        -0.2708         -135.5          68.84          50.38          119.6          55.16
    0.2864              -27.42           5.34          37.35          58.73         -16.78        -0.2685         -135.4          68.84          50.35          119.5          55.18
    0.3273              -27.42          5.345          37.35          58.73         -16.78        -0.2661         -135.4          68.84          50.31          119.5           55.2
    0.3682              -27.42          5.349          37.36          58.73         -16.77        -0.2635         -135.4          68.83          50.28          119.5          55.23
    0.4091              -27.41          5.355          37.37          58.73         -16.77        -0.2607         -135.4          68.83          50.23          119.5          55.25
      0.45              -27.41          5.361          37.37          58.73         -16.77        -0.2577         -135.3          68.83          50.19          119.4          55.28
     0.491              -27.41          5.367          37.38          58.73         -16.77        -0.2544         -135.3          68.83          50.14          119.4          55.31
    0.5319               -27.4          5.373          37.39          58.73         -16.76        -0.2509         -135.2          68.83          50.09          119.4          55.34
    0.5728               -27.4          5.381           37.4          58.73         -16.76        -0.2471         -135.2          68.83          50.03          119.3          55.37
    0.6137              -27.39          5.389          37.41          58.73         -16.76         -0.243         -135.2          68.82          49.97          119.3          55.41
    0.6546              -27.39          5.397          37.43          58.73         -16.75        -0.2386         -135.1          68.82           49.9          119.3          55.45
    0.6955              -27.38          5.406          37.44          58.73         -16.75        -0.2337         -135.1          68.82          49.83          119.2          55.49
    0.7364              -27.38          5.417          37.45          58.73         -16.75        -0.2284         -135.0          68.82          49.75          119.2          55.54
    0.7773              -27.37          5.428          37.47          58.73         -16.74        -0.2226         -134.9          68.81          49.66          119.1          55.59
    0.8183              -27.36           5.44          37.49          58.73         -16.74        -0.2162         -134.9          68.81          49.57          119.1          55.65
    0.8592              -27.36          5.453           37.5          58.73         -16.73        -0.2091         -134.8          68.81          49.46          119.0          55.71
    0.9001              -27.35          5.468          37.53          58.73         -16.73        -0.2014         -134.7           68.8          49.35          118.9          55.78
     0.941              -27.34          5.485          37.55          58.73         -16.72        -0.1927         -134.6           68.8          49.22          118.9          55.86
    0.9819              -27.33          5.503          37.57          58.73         -16.71        -0.1832         -134.5           68.8          49.08          118.8          55.95
     1.023              -27.31          5.523           37.6          58.72          -16.7        -0.1725         -134.4          68.79          48.92          118.7          56.04
     1.064               -27.3          5.546          37.63          58.72         -16.69        -0.1605         -134.2          68.78          48.74          118.6          56.15
     1.105              -27.28          5.572          37.67          58.72         -16.68        -0.1471         -134.1          68.78          48.54          118.4          56.27
     1.146              -27.27          5.601          37.71          58.72         -16.67        -0.1319         -133.9          68.77          48.31          118.3           56.4
     1.186              -27.25          5.634          37.76          58.72         -16.66        -0.1146         -133.7          68.76          48.05          118.2          56.56
     1.227              -27.22          5.671          37.81          58.72         -16.64       -0.09489         -133.5          68.75          47.76          118.0          56.73
     1.268               -27.2          5.715          37.87          58.72         -16.63       -0.07228         -133.3          68.74          47.42          117.8          56.94
     1.309              -27.17          5.765          37.94          58.71         -16.61       -0.04617         -133.0          68.73          47.03          117.5          57.17
      1.35              -27.13          5.822          38.02          58.71         -16.58       -0.01583         -132.6          68.71          46.58          117.3          57.44
     1.391              -27.09           5.89          38.12          58.71         -16.56        0.01967         -132.2           68.7          46.05          116.9          57.76
     1.432              -27.05           5.97          38.23          58.71         -16.52        0.06152         -131.8          68.68          45.43          116.6          58.13
     1.473              -26.99          6.065          38.36           58.7         -16.48         0.1113         -131.2          68.65          44.68          116.1          58.58
     1.514              -26.92          6.179          38.52           58.7         -16.44         0.1709         -130.6          68.62          43.79          115.6          59.11
     1.555              -26.84          6.317          38.72          58.69         -16.38          0.243         -129.8          68.59          42.72          114.9          59.76
     1.596              -26.74          6.485          38.95          58.69         -16.32         0.3311         -128.8          68.54           41.4          114.1          60.55
     1.637              -26.61          6.693          39.25          58.68         -16.23         0.4398         -127.6          68.49          39.78          113.2          61.52
     1.677              -26.46          6.952          39.61          58.67         -16.13         0.5754         -126.1          68.42          37.76          111.9          62.73
     1.718              -26.26          7.278          40.07          58.66          -16.0         0.7462         -124.2          68.34          35.21          110.4          64.26
     1.759              -26.01          7.692          40.65          58.64         -15.83         0.9634         -121.8          68.23          31.97          108.4           66.2
       1.8              -25.69          8.223           41.4          58.62         -15.62          1.241         -118.7           68.1          27.82          105.9          68.69
     1.841              -25.28          8.904          42.35          58.59         -15.34          1.598         -114.7          67.92           22.5          102.7          71.88
     1.882              -24.76          9.774          43.57          58.56         -14.99          2.054         -109.7           67.7           15.7          98.62          75.95
     1.923               -24.1          10.87          45.11          58.51         -14.55          2.626         -103.3          67.42          7.157          93.46          81.08
     1.964               -23.3           12.2          46.98          58.46         -14.01          3.325         -95.55          67.08         -3.258          87.17          87.32
     2.005              -22.38          13.75          49.15           58.4         -13.39          4.134         -86.57          66.68         -15.33          79.88          94.56
     2.046              -21.37          15.42          51.51          58.34         -12.72           5.01         -76.84          66.25          -28.4          71.99          102.4
     2.087              -20.37          17.09          53.86          58.27         -12.04          5.886         -67.12          65.82         -41.48           64.1          110.2
     2.127              -19.44          18.64          56.03          58.21         -11.42          6.695         -58.13          65.42         -53.55          56.81          117.5
     2.168              -18.64          19.97           57.9          58.16         -10.88          7.393         -50.38          65.08         -63.97          50.52          123.7
     2.209              -17.98          21.07          59.44          58.12         -10.44          7.966         -44.02           64.8         -72.51          45.36          128.8
      2.25              -17.46          21.94          60.66          58.08         -10.09          8.422         -38.96          64.58         -79.31          41.26          132.9
     2.291              -17.05          22.62          61.61          58.05         -9.817          8.778          -35.0           64.4         -84.63          38.04          136.1
     2.332              -16.73          23.15          62.36          58.03         -9.603          9.056         -31.92          64.26         -88.78          35.54          138.6
     2.373              -16.48          23.56          62.94          58.02         -9.436          9.273         -29.51          64.16         -92.02          33.58          140.5
     2.414              -16.29          23.89           63.4           58.0         -9.305          9.444         -27.61          64.07         -94.57          32.04          142.1
